<svg width="17" height="18" viewBox="0 0 17 18" fill="none" xmlns="http://www.w3.org/2000/svg">
<path d="M7.47279 10.5328L5.676 8.73603C5.52279 8.58281 5.32779 8.50621 5.091 8.50621C4.85422 8.50621 4.65922 8.58281 4.506 8.73603C4.35279 8.88924 4.27618 9.08424 4.27618 9.32103C4.27618 9.55781 4.35279 9.75281 4.506 9.90603L6.88779 12.2878C7.05493 12.455 7.24993 12.5385 7.47279 12.5385C7.69564 12.5385 7.89064 12.455 8.05779 12.2878L12.7796 7.56603C12.9328 7.41281 13.0094 7.21781 13.0094 6.98103C13.0094 6.74424 12.9328 6.54924 12.7796 6.39603C12.6264 6.24281 12.4314 6.16621 12.1946 6.16621C11.9578 6.16621 11.7628 6.24281 11.6096 6.39603L7.47279 10.5328ZM8.64279 17.3857C7.48671 17.3857 6.40029 17.1662 5.3835 16.7271C4.36672 16.2881 3.48225 15.6928 2.73011 14.9412C1.97797 14.1896 1.38266 13.3052 0.944188 12.2878C0.505717 11.2705 0.286203 10.184 0.285646 9.02853C0.285088 7.87301 0.504603 6.78658 0.944188 5.76924C1.38377 4.7519 1.97908 3.86744 2.73011 3.11585C3.48114 2.36426 4.3656 1.76896 5.3835 1.32993C6.4014 0.890901 7.48783 0.671387 8.64279 0.671387C9.79774 0.671387 10.8842 0.890901 11.9021 1.32993C12.92 1.76896 13.8044 2.36426 14.5555 3.11585C15.3065 3.86744 15.9021 4.7519 16.3422 5.76924C16.7824 6.78658 17.0016 7.87301 16.9999 9.02853C16.9983 10.184 16.7787 11.2705 16.3414 12.2878C15.904 13.3052 15.3087 14.1896 14.5555 14.9412C13.8022 15.6928 12.9177 16.2884 11.9021 16.728C10.8864 17.1675 9.79997 17.3868 8.64279 17.3857Z" fill="#61DE70"/>
</svg>
