<svg width="32" height="32" viewBox="0 0 32 32" fill="none" xmlns="http://www.w3.org/2000/svg">
<path d="M2.6665 15.9999L1.88564 15.3752L1.38588 15.9999L1.88564 16.6246L2.6665 15.9999ZM14.6665 16.9999C15.2188 16.9999 15.6665 16.5522 15.6665 15.9999C15.6665 15.4476 15.2188 14.9999 14.6665 14.9999V16.9999ZM7.21897 8.70856L1.88564 15.3752L3.44737 16.6246L8.78071 9.95795L7.21897 8.70856ZM1.88564 16.6246L7.21897 23.2913L8.78071 22.0419L3.44737 15.3752L1.88564 16.6246ZM2.6665 16.9999H14.6665V14.9999H2.6665V16.9999Z" fill="white"/>
<path d="M13.3335 10.8427V8.72192C13.3335 7.10358 13.3335 6.29441 13.8075 5.73492C14.2814 5.17543 15.0796 5.0424 16.6759 4.77635L22.3471 3.83115C25.5902 3.29063 27.2117 3.02037 28.2726 3.91907C29.3335 4.81777 29.3335 6.46168 29.3335 9.74951V22.2507C29.3335 25.5385 29.3335 27.1824 28.2726 28.0811C27.2117 28.9798 25.5902 28.7095 22.3471 28.169L16.6759 27.2238C15.0796 26.9578 14.2814 26.8247 13.8075 26.2652C13.3335 25.7058 13.3335 24.8966 13.3335 23.2782V21.4214" stroke="white" stroke-width="2"/>
</svg>
