<svg width="40" height="40" viewBox="0 0 40 40" fill="none" xmlns="http://www.w3.org/2000/svg">
<path fill-rule="evenodd" clip-rule="evenodd" d="M34.9667 25.6674C35.0035 26.2184 34.5523 26.6667 34 26.6667H27.6583C27.106 26.6667 26.666 26.2165 26.5834 25.6704C26.3967 24.4367 25.8661 23.2762 25.0482 22.3252L30.9541 16.4193C33.3217 18.9501 34.7367 22.2195 34.9667 25.6674ZM30.2469 15.7122C27.5944 13.2308 24.1303 11.796 20.5 11.675V20.0273C21.9171 20.1339 23.2635 20.6916 24.341 21.6181L30.2469 15.7122ZM15.6591 21.6181C16.7366 20.6916 18.083 20.1339 19.5 20.0273V11.675C15.8697 11.796 12.4057 13.2308 9.75313 15.7122L15.6591 21.6181ZM9.046 16.4193C6.67835 18.9501 5.26343 22.2195 5.03335 25.6674C4.99658 26.2184 5.44776 26.6667 6.00005 26.6667L12.3418 26.6667C12.8941 26.6667 13.3341 26.2165 13.4167 25.6704C13.6034 24.4367 14.134 23.2762 14.9519 22.3252L9.046 16.4193Z" fill="white"/>
</svg>
