<svg width="79" height="79" viewBox="0 0 79 79" fill="none" xmlns="http://www.w3.org/2000/svg">
<g clip-path="url(#clip0_271_458)">
<path d="M39.5 0.00195312C17.687 0.00195312 0 17.6855 0 39.5002C0 61.3149 17.6853 78.9985 39.5 78.9985C61.3164 78.9985 79 61.3149 79 39.5002C79 17.6855 61.3164 0.00195312 39.5 0.00195312ZM39.5 11.8124C46.7178 11.8124 52.5666 17.663 52.5666 24.8773C52.5666 32.0933 46.7178 37.9422 39.5 37.9422C32.2857 37.9422 26.4369 32.0933 26.4369 24.8773C26.4369 17.663 32.2857 11.8124 39.5 11.8124ZM39.4913 68.6715C32.2926 68.6715 25.6995 66.0499 20.6141 61.7105C19.3752 60.6539 18.6604 59.1045 18.6604 57.4787C18.6604 50.1621 24.5821 44.3063 31.9005 44.3063H47.103C54.4231 44.3063 60.3223 50.1621 60.3223 57.4787C60.3223 59.1062 59.6109 60.6521 58.3703 61.7088C53.2867 66.0499 46.6918 68.6715 39.4913 68.6715Z" fill="white"/>
</g>
<defs>
<clipPath id="clip0_271_458">
<rect width="79" height="79" fill="white"/>
</clipPath>
</defs>
</svg>
