<svg width="40" height="40" viewBox="0 0 40 40" fill="none" xmlns="http://www.w3.org/2000/svg">
<path d="M23.4669 4.66732L22.7298 4.74103L22.7298 4.74103L23.4669 4.66732ZM23.1602 3.52477L23.6572 2.97555L23.6572 2.97554L23.1602 3.52477ZM23.753 7.52827L24.4901 7.45456L24.4901 7.45456L23.753 7.52827ZM26.1653 8.52746L26.6343 9.10076L26.6343 9.10076L26.1653 8.52746ZM28.3905 6.70679L27.9215 6.13349L27.9215 6.13349L28.3905 6.70679ZM29.4153 6.11577L29.3784 6.85559L29.3784 6.85559L29.4153 6.11577ZM30.3762 6.80583L29.8524 7.32961L29.8524 7.32961L30.3762 6.80583ZM33.1942 9.6238L33.718 9.10002L33.718 9.10002L33.1942 9.6238ZM33.2932 11.6095L33.8665 12.0786L33.8665 12.0786L33.2932 11.6095ZM31.4725 13.8348L30.8992 13.3658L30.8992 13.3658L31.4725 13.8348ZM30.4871 15.6561L29.8027 15.9395L29.8027 15.9395L30.4871 15.6561ZM32.4717 16.2471L32.5454 15.51L32.5454 15.51L32.4717 16.2471ZM35.3328 16.5332L35.4065 15.7961L35.4065 15.7961L35.3328 16.5332ZM36.4753 23.1599L37.0245 23.657L37.0245 23.657L36.4753 23.1599ZM35.3328 23.4667L35.2591 22.7296L35.2591 22.7296L35.3328 23.4667ZM32.4723 23.7527L32.3986 23.0156L32.3986 23.0156L32.4723 23.7527ZM30.4877 24.3437L31.172 24.6272L31.172 24.6272L30.4877 24.3437ZM31.4731 26.165L32.0465 25.6959L32.0464 25.6959L31.4731 26.165ZM33.8843 29.4144L33.1445 29.3775L33.1445 29.3775L33.8843 29.4144ZM29.4154 33.8833L29.3785 33.1435L29.3785 33.1435L29.4154 33.8833ZM24.3441 30.4862L24.0606 29.8018L24.0606 29.8018L24.3441 30.4862ZM23.7531 32.4708L24.4901 32.5445L24.4901 32.5445L23.7531 32.4708ZM23.4669 35.3325L22.7298 35.2588L22.7298 35.2588L23.4669 35.3325ZM23.1602 36.4751L23.6572 37.0243L23.6572 37.0243L23.1602 36.4751ZM16.8401 36.4751L16.3431 37.0243L16.3431 37.0243L16.8401 36.4751ZM16.5334 35.3325L17.2705 35.2588L17.2705 35.2588L16.5334 35.3325ZM16.2473 32.4715L15.5103 32.5452L15.5103 32.5452L16.2473 32.4715ZM13.8351 31.4723L13.366 30.899L13.366 30.899L13.8351 31.4723ZM11.6097 33.2931L12.0787 33.8664L12.0787 33.8664L11.6097 33.2931ZM10.5849 33.8841L10.548 34.6239L10.548 34.6239L10.5849 33.8841ZM9.62397 33.194L9.10019 33.7178L9.10019 33.7178L9.62397 33.194ZM6.80599 30.3761L6.28221 30.8998L6.28221 30.8998L6.80599 30.3761ZM6.11594 29.4151L6.85576 29.3783L6.85576 29.3783L6.11594 29.4151ZM6.70695 28.3904L7.28026 28.8594L7.28026 28.8594L6.70695 28.3904ZM8.52769 26.165L7.95439 25.6959L7.95439 25.6959L8.52769 26.165ZM9.51316 24.3437L10.1975 24.0603L10.1975 24.0603L9.51316 24.3437ZM7.5285 23.7528L7.4548 24.4898L7.4548 24.4898L7.5285 23.7528ZM4.66756 23.4667L4.59386 24.2037L4.59386 24.2037L4.66756 23.4667ZM3.52501 23.1599L2.97579 23.657L2.97579 23.657L3.52501 23.1599ZM3.52501 16.8399L4.07424 17.3369L4.07424 17.3369L3.52501 16.8399ZM4.66756 16.5332L4.74127 17.2702L4.74127 17.2702L4.66756 16.5332ZM7.52913 16.247L7.45542 15.51L7.45542 15.51L7.52913 16.247ZM9.51379 15.656L10.1981 15.9395L10.1981 15.9395L9.51379 15.656ZM8.52832 13.8348L9.10162 13.3657L9.10162 13.3657L8.52832 13.8348ZM6.70703 11.6087L7.28033 11.1397L7.28033 11.1397L6.70703 11.6087ZM6.11601 10.5839L6.85583 10.6208L6.85583 10.6208L6.11601 10.5839ZM6.80607 9.62305L7.32985 10.1468L7.32985 10.1468L6.80607 9.62305ZM9.62405 6.80507L9.10026 6.28129L9.10026 6.28129L9.62405 6.80507ZM10.5849 6.11502L10.548 5.37519L10.548 5.37519L10.5849 6.11502ZM11.6097 6.70603L12.0788 6.13273L12.0788 6.13273L11.6097 6.70603ZM13.8351 8.52681L14.3042 7.9535L14.3042 7.9535L13.8351 8.52681ZM16.2474 7.52762L16.9845 7.60132L16.9845 7.60132L16.2474 7.52762ZM16.5334 4.66732L15.7964 4.59361L15.7964 4.59362L16.5334 4.66732ZM16.8401 3.52477L16.3431 2.97554L16.3431 2.97554L16.8401 3.52477ZM24.204 4.59361C24.1742 4.29631 24.1463 4.00251 24.0907 3.76279C24.0304 3.50247 23.9183 3.21181 23.6572 2.97555L22.6631 4.07399C22.6137 4.02924 22.6233 3.99285 22.6475 4.09742C22.6765 4.22259 22.6962 4.40431 22.7298 4.74103L24.204 4.59361ZM24.4901 7.45456L24.204 4.59361L22.7298 4.74103L23.0159 7.60197L24.4901 7.45456ZM24.6275 8.82857C24.7563 8.88193 24.7233 8.98682 24.6587 8.73003C24.5938 8.47219 24.5531 8.08462 24.4901 7.45456L23.0159 7.60197C23.0739 8.18195 23.1239 8.70189 23.222 9.09147C23.3202 9.4821 23.5222 9.97431 24.0605 10.1973L24.6275 8.82857ZM25.6962 7.95416C25.2061 8.35512 24.9033 8.60037 24.6751 8.73683C24.4478 8.87273 24.4987 8.77522 24.6275 8.82857L24.0605 10.1973C24.5988 10.4203 25.0897 10.215 25.4354 10.0083C25.7802 9.80215 26.1832 9.46985 26.6343 9.10076L25.6962 7.95416ZM27.9215 6.13349L25.6962 7.95416L26.6343 9.10076L28.8596 7.28009L27.9215 6.13349ZM29.4522 5.37595C29.1005 5.35841 28.8158 5.48469 28.589 5.62608C28.3802 5.75629 28.1527 5.94428 27.9215 6.13349L28.8596 7.28009C29.1215 7.0658 29.2639 6.95118 29.3729 6.88319C29.464 6.8264 29.445 6.85891 29.3784 6.85559L29.4522 5.37595ZM30.9 6.28204C30.6887 6.07077 30.4811 5.86107 30.2862 5.71073C30.0747 5.54748 29.8039 5.39349 29.4522 5.37595L29.3784 6.85559C29.3118 6.85227 29.2962 6.81803 29.3812 6.88361C29.4829 6.96211 29.6132 7.09033 29.8524 7.32961L30.9 6.28204ZM33.718 9.10002L30.9 6.28204L29.8524 7.32961L32.6704 10.1476L33.718 9.10002ZM34.6241 10.5478C34.6065 10.1961 34.4525 9.92534 34.2893 9.71378C34.139 9.51896 33.9293 9.3113 33.718 9.10002L32.6704 10.1476C32.9097 10.3869 33.0379 10.5171 33.1164 10.6188C33.182 10.7038 33.1478 10.6882 33.1444 10.6216L34.6241 10.5478ZM33.8665 12.0786C34.0557 11.8473 34.2437 11.6198 34.3739 11.411C34.5153 11.1842 34.6416 10.8995 34.6241 10.5478L33.1444 10.6216C33.1411 10.555 33.1736 10.536 33.1168 10.6271C33.0488 10.7362 32.9342 10.8785 32.7199 11.1404L33.8665 12.0786ZM32.0458 14.3039L33.8665 12.0786L32.7199 11.1404L30.8992 13.3658L32.0458 14.3039ZM31.1714 15.3726C31.2248 15.5014 31.1273 15.5523 31.2632 15.325C31.3996 15.0968 31.6449 14.7939 32.0458 14.3039L30.8992 13.3658C30.5301 13.8169 30.1978 14.2199 29.9917 14.5647C29.7849 14.9104 29.5797 15.4012 29.8027 15.9395L31.1714 15.3726ZM32.5454 15.51C31.9154 15.447 31.5278 15.4063 31.2699 15.3414C31.0132 15.2768 31.1181 15.2438 31.1714 15.3726L29.8027 15.9395C30.0257 16.4778 30.5179 16.6798 30.9085 16.7781C31.2981 16.8761 31.818 16.9261 32.398 16.9841L32.5454 15.51ZM35.4065 15.7961L32.5454 15.51L32.398 16.9841L35.2591 17.2702L35.4065 15.7961ZM37.0245 16.3429C36.7883 16.0818 36.4976 15.9697 36.2373 15.9094C35.9976 15.8538 35.7038 15.8258 35.4065 15.7961L35.2591 17.2702C35.5958 17.3039 35.7775 17.3235 35.9027 17.3526C36.0072 17.3768 35.9708 17.3864 35.9261 17.3369L37.0245 16.3429ZM37.4076 18.0073C37.4076 17.7085 37.409 17.4134 37.3776 17.1693C37.3434 16.9043 37.2608 16.6039 37.0245 16.3429L35.9261 17.3369C35.8813 17.2875 35.8945 17.2522 35.9082 17.3587C35.9246 17.4861 35.9261 17.6689 35.9261 18.0073H37.4076ZM37.4076 21.9925V18.0073H35.9261V21.9925H37.4076ZM37.0245 23.657C37.2608 23.3959 37.3434 23.0955 37.3776 22.8305C37.409 22.5864 37.4076 22.2913 37.4076 21.9925H35.9261C35.9261 22.3309 35.9246 22.5137 35.9082 22.6411C35.8945 22.7476 35.8813 22.7123 35.9261 22.6629L37.0245 23.657ZM35.4065 24.2037C35.7038 24.174 35.9976 24.1461 36.2373 24.0905C36.4976 24.0301 36.7883 23.918 37.0245 23.657L35.9261 22.6629C35.9708 22.6134 36.0072 22.623 35.9027 22.6473C35.7775 22.6763 35.5958 22.6959 35.2591 22.7296L35.4065 24.2037ZM32.546 24.4898L35.4065 24.2037L35.2591 22.7296L32.3986 23.0156L32.546 24.4898ZM31.172 24.6272C31.1187 24.756 31.0138 24.723 31.2706 24.6584C31.5284 24.5935 31.916 24.5528 32.546 24.4898L32.3986 23.0156C31.8187 23.0736 31.2987 23.1236 30.9091 23.2217C30.5185 23.3199 30.0263 23.5219 29.8033 24.0602L31.172 24.6272ZM32.0464 25.6959C31.6455 25.2058 31.4002 24.903 31.2638 24.6748C31.1279 24.4475 31.2254 24.4984 31.172 24.6272L29.8033 24.0602C29.5804 24.5985 29.7856 25.0894 29.9923 25.4351C30.1985 25.7799 30.5308 26.1829 30.8998 26.634L32.0464 25.6959ZM33.8666 27.9205L32.0465 25.6959L30.8998 26.634L32.72 28.8587L33.8666 27.9205ZM34.6241 29.4513C34.6417 29.0996 34.5154 28.8149 34.374 28.5881C34.2438 28.3793 34.0558 28.1518 33.8666 27.9205L32.72 28.8587C32.9343 29.1206 33.0489 29.2629 33.1169 29.372C33.1737 29.4631 33.1412 29.4441 33.1445 29.3775L34.6241 29.4513ZM33.7181 30.8991C33.9293 30.6878 34.139 30.4801 34.2894 30.2853C34.4526 30.0738 34.6066 29.803 34.6241 29.4513L33.1445 29.3775C33.1478 29.3109 33.1821 29.2953 33.1165 29.3803C33.038 29.482 32.9098 29.6122 32.6705 29.8515L33.7181 30.8991ZM30.9001 33.7171L33.7181 30.8991L32.6705 29.8515L29.8525 32.6695L30.9001 33.7171ZM29.4523 34.6231C29.804 34.6056 30.0748 34.4516 30.2863 34.2884C30.4811 34.138 30.6888 33.9283 30.9001 33.7171L29.8525 32.6695C29.6132 32.9088 29.483 33.037 29.3812 33.1155C29.2963 33.1811 29.3119 33.1468 29.3785 33.1435L29.4523 34.6231ZM27.9215 33.8656C28.1528 34.0548 28.3803 34.2428 28.5891 34.373C28.8158 34.5144 29.1006 34.6407 29.4523 34.6231L29.3785 33.1435C29.4451 33.1402 29.4641 33.1727 29.373 33.1159C29.2639 33.0479 29.1216 32.9333 28.8597 32.719L27.9215 33.8656ZM25.6963 32.0449L27.9215 33.8656L28.8597 32.719L26.6344 30.8983L25.6963 32.0449ZM24.6275 31.1705C24.4987 31.2239 24.4479 31.1264 24.6751 31.2623C24.9033 31.3987 25.2062 31.644 25.6963 32.0449L26.6344 30.8983C26.1833 30.5292 25.7803 30.197 25.4355 29.9908C25.0898 29.7841 24.5989 29.5788 24.0606 29.8018L24.6275 31.1705ZM24.4901 32.5445C24.5531 31.9145 24.5939 31.5269 24.6587 31.2691C24.7233 31.0123 24.7563 31.1172 24.6275 31.1705L24.0606 29.8018C23.5223 30.0248 23.3203 30.517 23.222 30.9076C23.124 31.2972 23.074 31.8171 23.016 32.3971L24.4901 32.5445ZM24.204 35.4062L24.4901 32.5445L23.016 32.3971L22.7298 35.2588L24.204 35.4062ZM23.6572 37.0243C23.9183 36.788 24.0304 36.4974 24.0907 36.237C24.1463 35.9973 24.1742 35.7035 24.204 35.4062L22.7298 35.2588C22.6962 35.5955 22.6765 35.7772 22.6475 35.9024C22.6233 36.007 22.6137 35.9706 22.6631 35.9258L23.6572 37.0243ZM21.9928 37.4073C22.2916 37.4073 22.5867 37.4088 22.8307 37.3773C23.0958 37.3432 23.3961 37.2606 23.6572 37.0243L22.6631 35.9258C22.7126 35.8811 22.7478 35.8943 22.6414 35.908C22.5139 35.9244 22.3312 35.9258 21.9928 35.9258V37.4073ZM18.0075 37.4073H21.9928V35.9258H18.0075V37.4073ZM16.3431 37.0243C16.6042 37.2606 16.9045 37.3432 17.1696 37.3773C17.4136 37.4088 17.7088 37.4073 18.0075 37.4073V35.9258C17.6692 35.9258 17.4864 35.9244 17.3589 35.908C17.2525 35.8943 17.2877 35.8811 17.3372 35.9258L16.3431 37.0243ZM15.7964 35.4062C15.8261 35.7035 15.854 35.9973 15.9096 36.237C15.97 36.4974 16.082 36.788 16.3431 37.0243L17.3372 35.9258C17.3866 35.9706 17.377 36.007 17.3528 35.9024C17.3238 35.7772 17.3042 35.5955 17.2705 35.2588L15.7964 35.4062ZM15.5103 32.5452L15.7964 35.4062L17.2705 35.2588L16.9844 32.3978L15.5103 32.5452ZM15.3729 31.1712C15.244 31.1178 15.277 31.0129 15.3416 31.2697C15.4065 31.5276 15.4472 31.9151 15.5103 32.5452L16.9844 32.3978C16.9264 31.8178 16.8764 31.2979 16.7784 30.9083C16.6801 30.5177 16.4781 30.0254 15.9398 29.8025L15.3729 31.1712ZM14.3041 32.0456C14.7942 31.6446 15.0971 31.3994 15.3252 31.2629C15.5525 31.127 15.5017 31.2245 15.3729 31.1712L15.9398 29.8025C15.4015 29.5795 14.9106 29.7847 14.5649 29.9914C14.2201 30.1976 13.8171 30.5299 13.366 30.899L14.3041 32.0456ZM12.0787 33.8664L14.3041 32.0456L13.366 30.899L11.1406 32.7198L12.0787 33.8664ZM10.548 34.6239C10.8996 34.6414 11.1844 34.5152 11.4112 34.3738C11.62 34.2436 11.8475 34.0556 12.0787 33.8664L11.1406 32.7198C10.8787 32.934 10.7363 33.0487 10.6273 33.1167C10.5362 33.1735 10.5552 33.1409 10.6218 33.1443L10.548 34.6239ZM9.10019 33.7178C9.31146 33.9291 9.51913 34.1388 9.71395 34.2891C9.92551 34.4524 10.1963 34.6064 10.548 34.6239L10.6218 33.1443C10.6884 33.1476 10.704 33.1818 10.619 33.1162C10.5173 33.0377 10.387 32.9095 10.1478 32.6702L9.10019 33.7178ZM6.28221 30.8998L9.10019 33.7178L10.1478 32.6702L7.32977 29.8523L6.28221 30.8998ZM5.37612 29.452C5.39366 29.8037 5.54764 30.0745 5.7109 30.2861C5.86123 30.4809 6.07093 30.6886 6.28221 30.8998L7.32977 29.8523C7.09049 29.613 6.96227 29.4827 6.88378 29.381C6.8182 29.296 6.85244 29.3116 6.85576 29.3783L5.37612 29.452ZM6.13365 27.9213C5.94445 28.1525 5.75645 28.38 5.62625 28.5889C5.48486 28.8156 5.35858 29.1004 5.37612 29.452L6.85576 29.3783C6.85908 29.4449 6.82656 29.4638 6.88336 29.3727C6.95135 29.2637 7.06597 29.1213 7.28026 28.8594L6.13365 27.9213ZM7.95439 25.6959L6.13365 27.9213L7.28026 28.8594L9.101 26.6341L7.95439 25.6959ZM8.8288 24.6272C8.77545 24.4984 8.87296 24.4476 8.73706 24.6748C8.60061 24.903 8.35536 25.2059 7.95439 25.6959L9.101 26.6341C9.47009 26.183 9.80238 25.7799 10.0085 25.4352C10.2153 25.0895 10.4205 24.5986 10.1975 24.0603L8.8288 24.6272ZM7.4548 24.4898C8.08485 24.5528 8.47242 24.5936 8.73026 24.6584C8.98706 24.723 8.88216 24.756 8.82881 24.6272L10.1975 24.0603C9.97454 23.522 9.48233 23.32 9.09171 23.2217C8.70213 23.1237 8.18218 23.0737 7.60221 23.0157L7.4548 24.4898ZM4.59386 24.2037L7.4548 24.4898L7.60221 23.0157L4.74127 22.7296L4.59386 24.2037ZM2.97579 23.657C3.21206 23.918 3.50271 24.0301 3.76303 24.0905C4.00275 24.1461 4.29655 24.174 4.59386 24.2037L4.74127 22.7296C4.40455 22.6959 4.22283 22.6763 4.09766 22.6473C3.99309 22.623 4.02949 22.6134 4.07424 22.6629L2.97579 23.657ZM2.59276 21.9925C2.59276 22.2913 2.59132 22.5864 2.62277 22.8305C2.65693 23.0955 2.73952 23.3959 2.97579 23.657L4.07424 22.6629C4.11899 22.7123 4.10582 22.7476 4.0921 22.6411C4.07568 22.5137 4.07424 22.3309 4.07424 21.9925H2.59276ZM2.59276 18.0073V21.9925H4.07424V18.0073H2.59276ZM2.97579 16.3429C2.73952 16.6039 2.65693 16.9043 2.62277 17.1693C2.59132 17.4134 2.59276 17.7085 2.59276 18.0073H4.07424C4.07424 17.6689 4.07568 17.4861 4.0921 17.3587C4.10582 17.2522 4.11899 17.2875 4.07424 17.3369L2.97579 16.3429ZM4.59386 15.7961C4.29655 15.8258 4.00275 15.8538 3.76303 15.9094C3.50271 15.9697 3.21206 16.0818 2.97579 16.3429L4.07424 17.3369C4.02949 17.3864 3.99309 17.3768 4.09766 17.3526C4.22283 17.3235 4.40455 17.3039 4.74127 17.2702L4.59386 15.7961ZM7.45542 15.51L4.59386 15.7961L4.74127 17.2702L7.60284 16.9841L7.45542 15.51ZM8.82943 15.3726C8.88278 15.2437 8.98768 15.2767 8.73089 15.3413C8.47305 15.4062 8.08548 15.447 7.45542 15.51L7.60284 16.9841C8.18281 16.9261 8.70275 16.8761 9.09233 16.7781C9.48296 16.6798 9.97517 16.4778 10.1981 15.9395L8.82943 15.3726ZM7.95502 14.3038C8.35598 14.7939 8.60123 15.0968 8.73769 15.3249C8.87358 15.5522 8.77608 15.5014 8.82943 15.3726L10.1981 15.9395C10.4211 15.4012 10.2159 14.9103 10.0092 14.5646C9.803 14.2198 9.47071 13.8168 9.10162 13.3657L7.95502 14.3038ZM6.13373 12.0778L7.95502 14.3038L9.10162 13.3657L7.28033 11.1397L6.13373 12.0778ZM5.37619 10.547C5.35865 10.8987 5.48493 11.1835 5.62632 11.4102C5.75653 11.6191 5.94452 11.8466 6.13373 12.0778L7.28033 11.1397C7.06605 10.8778 6.95142 10.7354 6.88344 10.6264C6.82664 10.5353 6.85916 10.5542 6.85583 10.6208L5.37619 10.547ZM6.28229 9.09927C6.07101 9.31054 5.86131 9.51821 5.71097 9.71303C5.54772 9.92459 5.39373 10.1954 5.37619 10.5471L6.85583 10.6208C6.85251 10.6875 6.81827 10.7031 6.88385 10.6181C6.96235 10.5164 7.09057 10.3861 7.32985 10.1468L6.28229 9.09927ZM9.10026 6.28129L6.28229 9.09927L7.32985 10.1468L10.1478 7.32885L9.10026 6.28129ZM10.548 5.37519C10.1964 5.39273 9.92558 5.54672 9.71402 5.70998C9.5192 5.86031 9.31154 6.07001 9.10026 6.28129L10.1478 7.32885C10.3871 7.08957 10.5174 6.96135 10.6191 6.88285C10.7041 6.81727 10.6885 6.85151 10.6218 6.85484L10.548 5.37519ZM12.0788 6.13273C11.8476 5.94353 11.6201 5.75553 11.4112 5.62533C11.1845 5.48393 10.8997 5.35765 10.548 5.37519L10.6218 6.85484C10.5552 6.85816 10.5363 6.82564 10.6274 6.88244C10.7364 6.95043 10.8788 7.06505 11.1407 7.27934L12.0788 6.13273ZM14.3042 7.9535L12.0788 6.13273L11.1407 7.27933L13.3661 9.10011L14.3042 7.9535ZM15.3729 8.82792C15.5017 8.77457 15.5526 8.87207 15.3253 8.73618C15.0971 8.59972 14.7943 8.35447 14.3042 7.9535L13.3661 9.10011C13.8172 9.4692 14.2202 9.80149 14.565 10.0077C14.9107 10.2144 15.4016 10.4196 15.9399 10.1966L15.3729 8.82792ZM15.5103 7.45391C15.4473 8.08396 15.4066 8.47154 15.3417 8.72938C15.2771 8.98617 15.2441 8.88127 15.3729 8.82792L15.9399 10.1966C16.4782 9.97366 16.6802 9.48145 16.7784 9.09082C16.8764 8.70124 16.9265 8.1813 16.9845 7.60132L15.5103 7.45391ZM15.7964 4.59362L15.5103 7.45391L16.9845 7.60132L17.2705 4.74103L15.7964 4.59362ZM16.3431 2.97554C16.082 3.21181 15.97 3.50247 15.9096 3.76279C15.854 4.00251 15.8261 4.29631 15.7964 4.59361L17.2705 4.74103C17.3042 4.40431 17.3238 4.22259 17.3528 4.09742C17.377 3.99285 17.3866 4.02924 17.3372 4.07399L16.3431 2.97554ZM18.0076 2.59251C17.7088 2.59251 17.4136 2.59107 17.1696 2.62253C16.9045 2.65669 16.6042 2.73928 16.3431 2.97554L17.3372 4.07399C17.2877 4.11874 17.2525 4.10558 17.3589 4.09186C17.4864 4.07543 17.6692 4.07399 18.0076 4.07399V2.59251ZM21.9928 2.59251H18.0076V4.07399H21.9928V2.59251ZM23.6572 2.97554C23.3961 2.73928 23.0958 2.65669 22.8307 2.62253C22.5867 2.59107 22.2916 2.59251 21.9928 2.59251V4.07399C22.3312 4.07399 22.5139 4.07543 22.6414 4.09186C22.7478 4.10558 22.7126 4.11874 22.6631 4.07399L23.6572 2.97554ZM25.9262 19.9999C25.9262 23.2727 23.273 25.9258 20.0002 25.9258V27.4073C24.0912 27.4073 27.4077 24.0909 27.4077 19.9999H25.9262ZM20.0002 14.074C23.273 14.074 25.9262 16.7271 25.9262 19.9999H27.4077C27.4077 15.9089 24.0912 12.5925 20.0002 12.5925V14.074ZM14.0743 19.9999C14.0743 16.7271 16.7274 14.074 20.0002 14.074V12.5925C15.9092 12.5925 12.5928 15.9089 12.5928 19.9999H14.0743ZM20.0002 25.9258C16.7274 25.9258 14.0743 23.2727 14.0743 19.9999H12.5928C12.5928 24.0909 15.9092 27.4073 20.0002 27.4073V25.9258Z" fill="white"/>
</svg>
