<svg width="61" height="61" viewBox="0 0 61 61" fill="none" xmlns="http://www.w3.org/2000/svg">
<path d="M9.35295 20.8311L2 20.395C7.26961 6.85764 22.4002 -0.848708 37.1488 2.98166C52.8607 7.06569 62.1944 22.6978 57.9936 37.8939C54.5194 50.4652 42.8773 58.8042 30.0638 59.0009" stroke="#FFA600" stroke-width="3.5" stroke-linecap="round" stroke-linejoin="round"/>
<path d="M30.4998 59.0008C14.8249 59.0008 2 44.7509 2 27.651M35.0712 24.0087C34.068 22.9543 31.6141 20.4833 27.7325 22.2418C23.8536 23.9945 23.238 29.6403 29.1062 30.2417C31.7566 30.5124 33.4866 29.9282 35.0712 31.5811C36.6558 33.2398 36.9493 37.8454 32.9023 39.088C28.8554 40.3306 26.2305 38.2786 25.5266 37.6373M30.2376 19.1581V21.4096M30.2376 39.4699V41.9579" stroke="#FFA600" stroke-width="3.5" stroke-linecap="round" stroke-linejoin="round"/>
</svg>
