<svg width="18" height="16" viewBox="0 0 18 16" fill="none" xmlns="http://www.w3.org/2000/svg">
<path d="M0.672852 15.3544L9.00305 0.96582L17.3333 15.3544H0.672852ZM9.00305 13.0825C9.21762 13.0825 9.3976 13.0098 9.543 12.8644C9.6884 12.719 9.76085 12.5392 9.76034 12.3252C9.75984 12.1111 9.68714 11.9314 9.54224 11.786C9.39735 11.6406 9.21762 11.5679 9.00305 11.5679C8.78849 11.5679 8.60876 11.6406 8.46386 11.786C8.31897 11.9314 8.24627 12.1111 8.24576 12.3252C8.24526 12.5392 8.31796 12.7192 8.46386 12.8651C8.60977 13.011 8.7895 13.0835 9.00305 13.0825ZM8.24576 10.8106H9.76034V7.02415H8.24576V10.8106Z" fill="#FFD400"/>
</svg>
